<?xml version="1.0" encoding="utf-8"?>
<svg xmlns="http://www.w3.org/2000/svg" viewBox="0 0 48 48" width="480" height="480">
  <path fill="#d6e5e5" d="M31.926,7.998c1.117-0.583,0.898-2.507-0.247-3.034c-1.144-0.527-2.598,0.238-3.08,1.402 c0.452-0.83-0.003-1.963-0.837-2.408s-1.902-0.277-2.688,0.249c-0.785,0.526-1.32,1.357-1.688,2.228 c-0.518-1.249-2.037-1.985-3.339-1.616c-1.301,0.369-2.209,1.792-1.995,3.127c0.06-0.952-1.165-1.556-2.075-1.268 s-1.525,1.113-2.078,1.891c-0.243,0.342-0.493,0.701-0.554,1.116s-0.079,1.601,0.322,1.726l18,0.839l2-3.625 C33.276,8.701,32.316,7.922,31.926,7.998z" />
  <path fill="#fcbf95" d="M12.61,11.51l22.321,0.273c0,0,0.386,11.958-2.054,17.712s-5.031,6.083-5.891,8.012 c-0.611,0.96-2.298,2.148-3.986,1.992s-2.688-1.219-4-3.469s-4.75-6.162-5.375-8.906C13,24.381,12.157,14.927,12.61,11.51z" />
  <path fill="#d6e5e5" d="M12.61,11.51c0,0,4.045-0.175,7.483,0.062s10.705,0.839,14.837,0.211 c0.038,1.56-0.031,4.912-0.031,4.912s-7.33,0.349-12.493,0s-10.094-0.924-10.094-0.924L12.61,11.51z" />
  <path fill="#d6e5e5" d="M13.906,45.75c0,0,13.417,1.275,19.24,0.325c-3.596-2.325-8.292-3.919-5.922-8.903 c-1.815,1.761-4.005,3.922-7.505,0.61C19.753,40.501,18.875,42.5,13.906,45.75z" />
  <path fill="#f58420" d="M44.128,7.767c-2.379-1.434-4.451-2.504-6.83-3.938c-0.221-0.133-0.478-0.272-0.725-0.196 c-0.263,0.081-0.395,0.368-0.498,0.623c-0.933,2.307-3.032,5.733-4.409,7.806l2.588-0.19c0.849-1.532,2.036-3.733,2.885-5.264 c0.043-0.077,0.1-0.164,0.188-0.167c0.068-0.003,0.125,0.046,0.175,0.091c1.668,1.504,3.454,2.074,5.507,2.983 c0.1,0.044,0.212,0.09,0.316,0.056c0.108-0.035,0.172-0.142,0.227-0.241c0.247-0.445,0.633-0.82,0.88-1.265 C44.386,7.928,44.253,7.843,44.128,7.767z" />
  <path fill="#ed2224" d="M21.647,6.609c-0.11-0.393-0.221-0.795-0.196-1.203c0.056-0.92,0.861-1.712,1.789-1.873 c0.928-0.16,1.909,0.262,2.504,0.976s0.99,1.977,0.724,2.598C25.999,8.2,23.226,9.824,21.647,6.609z" />
  <path fill="#010101" d="M44.906,7.901c-0.11-0.315-0.377-0.476-0.521-0.562c-1.193-0.721-2.311-1.349-3.428-1.978 C39.85,4.739,38.741,4.115,37.556,3.4c-0.229-0.136-0.652-0.39-1.13-0.244c-0.508,0.156-0.715,0.668-0.814,0.913 c-0.459,1.134-1.233,2.59-2.074,4.037c-0.138-0.047-0.36-0.163-0.507-0.236c-0.06-0.03-0.11-0.06-0.17-0.09 c0.2-0.33,0.31-0.74,0.3-1.19c-0.02-0.92-0.52-1.73-1.27-2.08c-0.61-0.28-1.32-0.29-2.01-0.02c-0.26,0.1-0.51,0.24-0.73,0.41 c-0.2-0.6-0.62-1.1-1.15-1.38c-0.789-0.423-1.783-0.413-2.671-0.016c-0.453-0.282-0.963-0.453-1.48-0.49 C23.677,2.72,23.46,2.441,23.25,2.18C22.71,1.5,21.73,1.1,20.56,1.1c-0.27,0-0.5,0.23-0.5,0.5c0,0.28,0.23,0.5,0.5,0.5 c0.86,0,1.56,0.26,1.96,0.77c0.082,0.103,0.148,0.191,0.216,0.28c-0.596,0.207-1.098,0.619-1.418,1.13 c-0.464-0.08-0.946-0.068-1.409,0.06c-1.03,0.29-1.85,1.12-2.2,2.12c-0.56-0.35-1.27-0.45-1.88-0.26 c-1.11,0.35-1.82,1.35-2.34,2.08c-0.25,0.35-0.56,0.79-0.64,1.33c-0.006,0.049-0.104,0.766,0.029,1.391 c-0.102,0.006-0.203,0.004-0.304,0.011c-0.252,0.019-0.451,0.221-0.464,0.473c-0.379,7.144-0.329,15.103,2.908,19.976 c0.477,0.718,1.018,1.393,1.541,2.046c0.604,0.754,1.228,1.533,1.731,2.356c0.614,1.003,1.546,2.961,0.888,4.813 c-0.471,1.324-2.063,2.26-3.603,3.165c-0.893,0.524-1.816,1.067-2.509,1.688c-0.053,0.048-0.094,0.104-0.122,0.166 c-0.037,0.067-0.059,0.144-0.062,0.225c-0.009,0.276,0.208,0.508,0.483,0.517c2.507,0.081,5.263,0.162,8.019,0.243 c2.756,0.082,5.511,0.163,8.016,0.244c0.485,0.016,0.976,0.032,1.47,0.032c0.866,0,1.743-0.05,2.615-0.239 c0.198-0.042,0.351-0.2,0.387-0.399c0.036-0.198-0.052-0.399-0.222-0.509L30.383,43.7c-1.467-0.945-3.051-2.087-3.286-3.687 c-0.136-0.917,0.204-1.987,0.956-3.015c0.433-0.591,0.939-1.115,1.477-1.67c0.314-0.324,0.63-0.649,0.929-0.988 c2.162-2.446,3.628-5.703,4.356-9.68c0.461-2.513,0.34-6.144,0.234-9.348c-0.042-1.24-0.08-2.405-0.08-3.392 c0-0.076-0.019-0.149-0.052-0.216c0.375-0.68,0.795-1.45,1.219-2.226c0.445-0.816,0.891-1.633,1.289-2.353 c1.341,1.131,2.761,1.73,4.259,2.363c0.366,0.154,0.74,0.313,1.126,0.483c0.124,0.056,0.384,0.167,0.667,0.074 c0.307-0.097,0.447-0.354,0.514-0.475c0.111-0.2,0.256-0.384,0.398-0.568c0.174-0.226,0.347-0.452,0.482-0.697 C44.939,8.184,44.952,8.035,44.906,7.901z M23.325,4.027c0.718-0.123,1.532,0.2,2.035,0.804c0.538,0.646,0.811,1.701,0.648,2.08 c-0.189,0.439-0.98,1.066-1.839,1.088C24.154,8,24.139,8,24.124,8c-0.799,0-1.492-0.542-2.009-1.57 c-0.097-0.351-0.185-0.682-0.166-0.993C21.99,4.772,22.595,4.153,23.325,4.027z M13.84,9.76c0.04-0.31,0.27-0.62,0.47-0.9 c0.56-0.8,1.09-1.48,1.82-1.71c0.36-0.11,0.83-0.02,1.14,0.23c0.1,0.07,0.2,0.18,0.25,0.32c0.01,0.11,0.02,0.22,0.04,0.32 c0.04,0.26,0.27,0.47,0.52,0.42c0.25-0.01,0.45-0.21,0.47-0.46c0.01-0.14,0-0.28-0.03-0.42c-0.01-0.99,0.7-1.99,1.66-2.26 c0.256-0.074,0.525-0.088,0.793-0.059c-0.006,0.045-0.019,0.089-0.021,0.135c-0.029,0.492,0.1,0.957,0.214,1.367 c0.008,0.03,0.02,0.059,0.033,0.087C22.117,8.7,23.401,9,24.128,9c0.022,0,0.045,0,0.067-0.001 c1.252-0.032,2.393-0.904,2.731-1.693c0.356-0.83-0.094-2.217-0.745-3.043c0.478-0.11,0.964-0.067,1.348,0.137 c0.32,0.17,0.58,0.5,0.69,0.87c0.08,0.26,0.08,0.51,0,0.73c-0.03,0.06-0.06,0.12-0.08,0.17c-0.1,0.25,0,0.53,0.24,0.65 c0.24,0.11,0.53,0.02,0.66-0.21c0.03-0.07,0.06-0.14,0.09-0.21c0.23-0.43,0.64-0.79,1.12-0.98c0.43-0.17,0.86-0.17,1.22,0 c0.46,0.21,0.68,0.75,0.69,1.19c0,0.21-0.03,0.72-0.47,0.94c-0.22,0.12-0.34,0.38-0.26,0.62c0.08,0.23,0.3,0.37,0.55,0.32 c0.1,0.01,0.4,0.17,0.59,0.26c0.159,0.087,0.308,0.161,0.454,0.226c-0.587,0.975-1.18,1.911-1.709,2.71 c-2.919,0.109-5.823-0.13-8.654-0.365c-2.847-0.236-5.78-0.457-8.753-0.357C13.82,10.769,13.78,10.157,13.84,9.76z M33.973,12.489 c0.01,0.863,0.042,1.835,0.076,2.857c0.007,0.217,0.014,0.44,0.021,0.661c-8.525,0.381-15.054,0.164-21.103-0.698 c0.022-1.117,0.063-2.232,0.118-3.329c3.209-0.183,6.4,0.08,9.492,0.337C26.28,12.626,30.103,12.943,33.973,12.489z M28.242,34.777 l-0.287,0.666c-0.166,0.182-0.326,0.374-0.472,0.558l-0.222,0.275c-0.157,0.188-0.297,0.39-0.436,0.592 c-0.079,0.114-0.158,0.229-0.242,0.342c-0.235,0.317-0.505,0.598-0.798,0.841c0.272-1.521,0.693-2.958,1.301-4.767 c0.112-0.332,0.231-0.671,0.352-1.014c0.593-1.687,1.206-3.43,1.269-5.169l0.354-9.936c0.686-0.012,1.386-0.029,2.099-0.05 c-0.027,0.576-0.038,1.198-0.047,1.827c-0.01,0.673-0.02,1.344-0.051,1.948c-0.038,0.715-0.056,1.433-0.074,2.15 c-0.046,1.869-0.094,3.803-0.526,5.627C29.954,30.809,29.123,32.736,28.242,34.777z M20.523,37.712 c-0.361-2.593-1.004-4.482-1.867-6.817c-1.656-4.486-2.258-9.362-1.755-14.118c0.967,0.089,1.954,0.164,2.963,0.223 c0.015,1.024,0.021,1.995,0.024,2.926c0.017,3.746,0.031,6.981,0.773,11.101c0.373,2.07,0.639,5.205,0.751,7.544 C21.085,38.336,20.787,38.041,20.523,37.712z M22.436,39.045c-0.098-2.409-0.38-5.923-0.79-8.197 c-0.728-4.033-0.741-7.229-0.758-10.928c-0.004-0.913-0.009-1.865-0.023-2.864c0.962,0.047,1.952,0.079,2.962,0.101l-0.267,8.71 c-0.054,1.756-0.185,3.505-0.312,5.197c-0.195,2.609-0.389,5.304-0.307,8.046c-0.032,0-0.065,0.004-0.098,0.003 C22.705,39.107,22.57,39.077,22.436,39.045z M23.94,38.995c-0.074-2.647,0.106-5.183,0.306-7.855 c0.128-1.702,0.26-3.463,0.314-5.24l0.267-8.722c0.566,0.008,1.137,0.013,1.721,0.013c0.495,0,1.002-0.004,1.511-0.01l-0.352,9.885 c-0.057,1.587-0.644,3.258-1.212,4.873c-0.122,0.348-0.242,0.69-0.355,1.027c-0.615,1.825-1.188,3.647-1.484,5.779 C24.422,38.848,24.183,38.934,23.94,38.995z M17.34,32.881c-0.51-0.636-1.036-1.294-1.488-1.974 c-2.384-3.589-2.94-9.059-2.898-14.588c0.97,0.136,1.952,0.259,2.953,0.363c-0.517,4.906,0.104,9.934,1.813,14.559 c0.521,1.41,0.944,2.61,1.276,3.883C18.488,34.332,17.909,33.592,17.34,32.881z M29.842,44.54l2.136,1.377 c-0.846,0.063-1.705,0.032-2.543,0.005c-2.507-0.081-5.263-0.162-8.019-0.243c-2.251-0.066-4.501-0.133-6.615-0.199 c0.4-0.26,0.835-0.515,1.282-0.777c1.693-0.996,3.445-2.025,4.037-3.691c0.24-0.673,0.298-1.346,0.262-1.993 c0.663,0.604,1.471,1.044,2.407,1.094c0.083,0.005,0.165,0.007,0.248,0.007c1.07,0,2.144-0.381,3.062-1.047 c-0.045,0.35-0.048,0.715,0.007,1.088C26.404,42.174,28.19,43.477,29.842,44.54z M33.83,24.481 c-0.673,3.677-2.002,6.691-3.941,8.975c0.614-1.478,1.165-2.95,1.547-4.558c0.457-1.926,0.507-3.912,0.554-5.833 c0.018-0.708,0.035-1.416,0.072-2.122c0.032-0.616,0.043-1.301,0.053-1.986c0.009-0.644,0.02-1.286,0.048-1.872 c0.634-0.022,1.281-0.049,1.938-0.078C34.176,19.698,34.195,22.489,33.83,24.481z M43.597,8.394 C43.447,8.587,43.3,8.781,43.149,9.03c-0.367-0.162-0.726-0.313-1.076-0.461c-1.58-0.668-2.944-1.244-4.235-2.408 c-0.077-0.07-0.259-0.242-0.533-0.22c-0.252,0.011-0.455,0.155-0.603,0.425c-0.425,0.767-0.935,1.7-1.444,2.635 c-0.478,0.875-0.952,1.745-1.36,2.481c-0.447,0.053-0.893,0.098-1.34,0.131c1.47-2.273,3.166-5.155,3.981-7.169 c0.104-0.259,0.16-0.32,0.179-0.332c0.025-0.004,0.108,0.016,0.322,0.145c1.193,0.721,2.311,1.349,3.428,1.978 c1.082,0.608,2.164,1.217,3.318,1.911C43.725,8.229,43.661,8.312,43.597,8.394z" />
</svg>