<svg width="22" height="23" viewBox="0 0 22 23" fill="none" xmlns="http://www.w3.org/2000/svg">
<path opacity="0.12" d="M11 14.25L8.25 11.5C8.7378 10.2345 9.35202 9.02142 10.0833 7.87919C11.1514 6.17143 12.6387 4.76532 14.4036 3.79461C16.1685 2.8239 18.1524 2.32086 20.1667 2.33336C20.1667 4.82669 19.4517 9.20836 14.6667 12.4167C13.5088 13.1489 12.2804 13.763 11 14.25Z" fill="#F15A22"/>
<path d="M11.0001 14.25L8.25008 11.5M11.0001 14.25C12.2805 13.763 13.5089 13.1489 14.6667 12.4167M11.0001 14.25V18.8334C11.0001 18.8334 13.7776 18.3292 14.6667 17C15.6567 15.515 14.6667 12.4167 14.6667 12.4167M8.25008 11.5C8.73788 10.2345 9.3521 9.02142 10.0834 7.87919C11.1515 6.17143 12.6387 4.76532 14.4037 3.79461C16.1686 2.8239 18.1525 2.32086 20.1667 2.33336C20.1667 4.82669 19.4517 9.20836 14.6667 12.4167M8.25008 11.5H3.66675C3.66675 11.5 4.17091 8.72252 5.50008 7.83336C6.98508 6.84336 10.0834 7.83336 10.0834 7.83336M4.12508 15.625C2.75008 16.78 2.29175 20.2084 2.29175 20.2084C2.29175 20.2084 5.72008 19.75 6.87508 18.375C7.52591 17.605 7.51675 16.4225 6.79258 15.7075C6.43628 15.3674 5.96693 15.1709 5.47462 15.1557C4.98231 15.1405 4.50172 15.3076 4.12508 15.625Z" stroke="#F15A22" stroke-width="1.83333" stroke-linecap="round" stroke-linejoin="round"/>
</svg>
