<svg width="22" height="23" viewBox="0 0 22 23" fill="none" xmlns="http://www.w3.org/2000/svg">
<path opacity="0.12" d="M5.57012 4.36965L10.4851 2.52654C10.6757 2.45507 10.771 2.41934 10.869 2.40517C10.9125 2.39889 10.9563 2.39575 11.0001 2.39575V20.5399C10.9318 20.5399 10.8634 20.5339 10.8079 20.522C10.6647 20.4913 10.5632 20.4321 10.3603 20.3137C8.57455 19.2719 3.66675 15.9995 3.66675 11.5001V7.11622C3.66675 6.38333 3.66675 6.01689 3.78661 5.7019C3.8925 5.42363 4.06457 5.17534 4.28793 4.97849C4.54079 4.75565 4.8839 4.62699 5.57012 4.36965Z" fill="#F15A22"/>
<path d="M11.0001 2.79163V20.2083M18.3334 11.5C18.3334 15.9994 13.4256 19.2718 11.6399 20.3136C11.437 20.432 11.3355 20.4912 11.1923 20.5219C11.0812 20.5457 10.919 20.5457 10.8079 20.5219C10.6647 20.4912 10.5632 20.432 10.3603 20.3136C8.57455 19.2718 3.66675 15.9994 3.66675 11.5V7.1161C3.66675 6.38321 3.66675 6.01677 3.78661 5.70178C3.8925 5.42351 4.06457 5.17522 4.28793 4.97837C4.54079 4.75553 4.8839 4.62687 5.57012 4.36953L10.4851 2.52641C10.6757 2.45495 10.771 2.41922 10.869 2.40505C10.9559 2.39249 11.0442 2.39249 11.1312 2.40505C11.2292 2.41922 11.3245 2.45495 11.5151 2.52641L16.43 4.36953C17.1163 4.62687 17.4594 4.75553 17.7122 4.97837C17.9356 5.17522 18.1077 5.42351 18.2136 5.70178C18.3334 6.01677 18.3334 6.38321 18.3334 7.1161V11.5Z" stroke="#F15A22" stroke-width="1.83333" stroke-linecap="round" stroke-linejoin="round"/>
</svg>
